<?xml version="1.0" encoding="UTF-8" standalone="no"?>
<!-- Created with Inkscape (http://www.inkscape.org/) -->

<svg
   xmlns:osb="http://www.openswatchbook.org/uri/2009/osb"
   xmlns:dc="http://purl.org/dc/elements/1.1/"
   xmlns:cc="http://creativecommons.org/ns#"
   xmlns:rdf="http://www.w3.org/1999/02/22-rdf-syntax-ns#"
   xmlns:svg="http://www.w3.org/2000/svg"
   xmlns="http://www.w3.org/2000/svg"
   xmlns:xlink="http://www.w3.org/1999/xlink"
   xmlns:sodipodi="http://sodipodi.sourceforge.net/DTD/sodipodi-0.dtd"
   xmlns:inkscape="http://www.inkscape.org/namespaces/inkscape"
   width="210mm"
   height="297mm"
   viewBox="0 0 210 297"
   version="1.1"
   id="svg8"
   inkscape:version="0.92.4 (5da689c313, 2019-01-14)"
   sodipodi:docname="wc_icon.svg">
  <defs
     id="defs2">
    <linearGradient
       id="linearGradient4816"
       osb:paint="solid">
      <stop
         style="stop-color:#c5fccf;stop-opacity:1;"
         offset="0"
         id="stop4814" />
    </linearGradient>
    <linearGradient
       id="linearGradient4810"
       osb:paint="solid">
      <stop
         style="stop-color:#facfcf;stop-opacity:1;"
         offset="0"
         id="stop4808" />
    </linearGradient>
    <linearGradient
       id="linearGradient4788"
       osb:paint="solid">
      <stop
         style="stop-color:#038056;stop-opacity:1;"
         offset="0"
         id="stop4786" />
    </linearGradient>
    <linearGradient
       id="linearGradient4681"
       osb:paint="solid">
      <stop
         style="stop-color:#000000;stop-opacity:1;"
         offset="0"
         id="stop4679" />
    </linearGradient>
    <linearGradient
       id="linearGradient4674"
       osb:paint="solid">
      <stop
         style="stop-color:#000000;stop-opacity:1;"
         offset="0"
         id="stop4672" />
    </linearGradient>
    <linearGradient
       id="linearGradient4668"
       osb:paint="solid">
      <stop
         style="stop-color:#d1615f;stop-opacity:1;"
         offset="0"
         id="stop4666" />
    </linearGradient>
    <linearGradient
       id="linearGradient4662"
       osb:paint="solid">
      <stop
         style="stop-color:#000000;stop-opacity:1;"
         offset="0"
         id="stop4660" />
    </linearGradient>
    <linearGradient
       id="linearGradient4620"
       osb:paint="solid">
      <stop
         style="stop-color:#9c0000;stop-opacity:1;"
         offset="0"
         id="stop4618" />
    </linearGradient>
    <linearGradient
       id="linearGradient4614"
       osb:paint="solid">
      <stop
         style="stop-color:#a42828;stop-opacity:1;"
         offset="0"
         id="stop4612" />
    </linearGradient>
    <linearGradient
       id="linearGradient4588"
       osb:paint="solid">
      <stop
         style="stop-color:#ffffff;stop-opacity:1;"
         offset="0"
         id="stop4586" />
    </linearGradient>
    <linearGradient
       inkscape:collect="always"
       xlink:href="#linearGradient4588"
       id="linearGradient4590"
       x1="25.73785"
       y1="290.00543"
       x2="34.262104"
       y2="290.00543"
       gradientUnits="userSpaceOnUse"
       gradientTransform="matrix(0.76954654,0,0,0.76954654,6.9135985,66.638334)" />
    <linearGradient
       inkscape:collect="always"
       xlink:href="#linearGradient4668"
       id="linearGradient4670"
       x1="22.799977"
       y1="289.811"
       x2="37.199977"
       y2="289.811"
       gradientUnits="userSpaceOnUse" />
    <linearGradient
       inkscape:collect="always"
       xlink:href="#linearGradient4588"
       id="linearGradient4701"
       gradientUnits="userSpaceOnUse"
       x1="17.169134"
       y1="260.72852"
       x2="42.792973"
       y2="260.72852"
       gradientTransform="translate(1.156562e-4,-3.3468004)" />
    <linearGradient
       inkscape:collect="always"
       xlink:href="#linearGradient4588"
       id="linearGradient4705"
       gradientUnits="userSpaceOnUse"
       x1="17.169134"
       y1="260.72852"
       x2="42.792973"
       y2="260.72852"
       gradientTransform="matrix(0.9979035,0,0,1.1754044,0.06297081,-46.509221)" />
    <linearGradient
       inkscape:collect="always"
       xlink:href="#linearGradient4588"
       id="linearGradient4709"
       gradientUnits="userSpaceOnUse"
       x1="17.169134"
       y1="260.72852"
       x2="42.792973"
       y2="260.72852"
       gradientTransform="matrix(1,0,0,0.88594308,-0.14972998,26.892791)" />
    <linearGradient
       inkscape:collect="always"
       xlink:href="#linearGradient4588"
       id="linearGradient4713"
       gradientUnits="userSpaceOnUse"
       x1="17.169134"
       y1="260.72852"
       x2="42.792973"
       y2="260.72852"
       gradientTransform="translate(1.156562e-4,-3.3468004)" />
    <linearGradient
       inkscape:collect="always"
       xlink:href="#linearGradient4588"
       id="linearGradient4717"
       gradientUnits="userSpaceOnUse"
       x1="17.169134"
       y1="260.72852"
       x2="42.792973"
       y2="260.72852"
       gradientTransform="translate(8.8136958e-5,-3.3468004)" />
    <linearGradient
       inkscape:collect="always"
       xlink:href="#linearGradient4588"
       id="linearGradient4721"
       gradientUnits="userSpaceOnUse"
       x1="17.169134"
       y1="260.72852"
       x2="42.792973"
       y2="260.72852"
       gradientTransform="translate(0.18720466,-3.3468004)" />
    <linearGradient
       inkscape:collect="always"
       xlink:href="#linearGradient4588"
       id="linearGradient4740"
       gradientUnits="userSpaceOnUse"
       x1="17.169134"
       y1="260.72852"
       x2="42.792973"
       y2="260.72852"
       gradientTransform="translate(0.01897808,-3.3468004)" />
    <linearGradient
       inkscape:collect="always"
       xlink:href="#linearGradient4668"
       id="linearGradient4742"
       gradientUnits="userSpaceOnUse"
       x1="17.169134"
       y1="260.72852"
       x2="42.792973"
       y2="260.72852"
       gradientTransform="translate(0.01897808,-3.3468004)" />
    <linearGradient
       inkscape:collect="always"
       xlink:href="#linearGradient4588"
       id="linearGradient4744"
       gradientUnits="userSpaceOnUse"
       x1="17.169134"
       y1="260.72852"
       x2="42.792973"
       y2="260.72852"
       gradientTransform="translate(0.01897808,-3.3468004)" />
    <linearGradient
       inkscape:collect="always"
       xlink:href="#linearGradient4668"
       id="linearGradient4746"
       gradientUnits="userSpaceOnUse"
       x1="17.169134"
       y1="260.72852"
       x2="42.792973"
       y2="260.72852"
       gradientTransform="translate(0.01897808,-3.3468004)" />
    <linearGradient
       inkscape:collect="always"
       xlink:href="#linearGradient4588"
       id="linearGradient4748"
       gradientUnits="userSpaceOnUse"
       x1="17.169134"
       y1="260.72852"
       x2="42.792973"
       y2="260.72852"
       gradientTransform="translate(0.01892517,-3.3468004)" />
    <linearGradient
       inkscape:collect="always"
       xlink:href="#linearGradient4668"
       id="linearGradient4750"
       gradientUnits="userSpaceOnUse"
       x1="17.169134"
       y1="260.72852"
       x2="42.792973"
       y2="260.72852"
       gradientTransform="translate(0.01892517,-3.3468004)" />
    <linearGradient
       inkscape:collect="always"
       xlink:href="#linearGradient4588"
       id="linearGradient4752"
       gradientUnits="userSpaceOnUse"
       x1="17.169134"
       y1="260.72852"
       x2="42.792973"
       y2="260.72852"
       gradientTransform="translate(0.01897808,-3.3468004)" />
    <linearGradient
       inkscape:collect="always"
       xlink:href="#linearGradient4668"
       id="linearGradient4754"
       gradientUnits="userSpaceOnUse"
       x1="17.169134"
       y1="260.72852"
       x2="42.792973"
       y2="260.72852"
       gradientTransform="translate(0.01897808,-3.3468004)" />
    <linearGradient
       inkscape:collect="always"
       xlink:href="#linearGradient4588"
       id="linearGradient4756"
       gradientUnits="userSpaceOnUse"
       x1="17.169134"
       y1="260.72852"
       x2="42.792973"
       y2="260.72852"
       gradientTransform="translate(0.01895082,-3.3468004)" />
    <linearGradient
       inkscape:collect="always"
       xlink:href="#linearGradient4668"
       id="linearGradient4758"
       gradientUnits="userSpaceOnUse"
       x1="17.169134"
       y1="260.72852"
       x2="42.792973"
       y2="260.72852"
       gradientTransform="translate(0.01895082,-3.3468004)" />
    <linearGradient
       inkscape:collect="always"
       xlink:href="#linearGradient4588"
       id="linearGradient4760"
       gradientUnits="userSpaceOnUse"
       x1="17.169134"
       y1="260.72852"
       x2="42.792973"
       y2="260.72852"
       gradientTransform="translate(0.20606708,-3.3468004)" />
    <linearGradient
       inkscape:collect="always"
       xlink:href="#linearGradient4668"
       id="linearGradient4762"
       gradientUnits="userSpaceOnUse"
       x1="17.169134"
       y1="260.72852"
       x2="42.792973"
       y2="260.72852"
       gradientTransform="translate(0.20606708,-3.3468004)" />
    <linearGradient
       inkscape:collect="always"
       xlink:href="#linearGradient4788"
       id="linearGradient4790"
       x1="18.254616"
       y1="257.38171"
       x2="41.707615"
       y2="257.38171"
       gradientUnits="userSpaceOnUse" />
    <linearGradient
       inkscape:collect="always"
       xlink:href="#linearGradient4788"
       id="linearGradient4792"
       gradientUnits="userSpaceOnUse"
       x1="18.254616"
       y1="257.38171"
       x2="41.707615"
       y2="257.38171" />
    <linearGradient
       inkscape:collect="always"
       xlink:href="#linearGradient4788"
       id="linearGradient4794"
       gradientUnits="userSpaceOnUse"
       x1="18.254616"
       y1="257.38171"
       x2="41.707615"
       y2="257.38171" />
    <linearGradient
       inkscape:collect="always"
       xlink:href="#linearGradient4788"
       id="linearGradient4796"
       gradientUnits="userSpaceOnUse"
       x1="18.254616"
       y1="257.38171"
       x2="41.707615"
       y2="257.38171" />
    <linearGradient
       inkscape:collect="always"
       xlink:href="#linearGradient4788"
       id="linearGradient4798"
       gradientUnits="userSpaceOnUse"
       x1="18.254616"
       y1="257.38171"
       x2="41.707615"
       y2="257.38171" />
    <linearGradient
       inkscape:collect="always"
       xlink:href="#linearGradient4788"
       id="linearGradient4800"
       gradientUnits="userSpaceOnUse"
       x1="18.254616"
       y1="257.38171"
       x2="41.707615"
       y2="257.38171" />
    <linearGradient
       inkscape:collect="always"
       xlink:href="#linearGradient4788"
       id="linearGradient4802"
       gradientUnits="userSpaceOnUse"
       x1="18.254616"
       y1="257.38171"
       x2="41.707615"
       y2="257.38171" />
    <linearGradient
       inkscape:collect="always"
       xlink:href="#linearGradient4816"
       id="linearGradient4818"
       x1="0"
       y1="972.78126"
       x2="226.77148"
       y2="972.78126"
       gradientUnits="userSpaceOnUse" />
    <linearGradient
       inkscape:collect="always"
       xlink:href="#linearGradient4788"
       id="linearGradient4824"
       gradientUnits="userSpaceOnUse"
       x1="22.799976"
       y1="289.811"
       x2="37.199978"
       y2="289.811" />
  </defs>
  <sodipodi:namedview
     id="base"
     pagecolor="#ffffff"
     bordercolor="#666666"
     borderopacity="1.0"
     inkscape:pageopacity="0.0"
     inkscape:pageshadow="2"
     inkscape:zoom="1.4142136"
     inkscape:cx="-236.21371"
     inkscape:cy="213.20444"
     inkscape:document-units="mm"
     inkscape:current-layer="g4806"
     showgrid="false"
     showguides="true"
     inkscape:guide-bbox="true"
     inkscape:window-width="2560"
     inkscape:window-height="1377"
     inkscape:window-x="-8"
     inkscape:window-y="-8"
     inkscape:window-maximized="1" />
  <metadata
     id="metadata5">
    <rdf:RDF>
      <cc:Work
         rdf:about="">
        <dc:format>image/svg+xml</dc:format>
        <dc:type
           rdf:resource="http://purl.org/dc/dcmitype/StillImage" />
        <dc:title />
      </cc:Work>
    </rdf:RDF>
  </metadata>
  <g
     inkscape:groupmode="layer"
     id="layer2"
     inkscape:label="BG Circle big busy"
     style="display:inline">
    <path
       style="fill:#facfcf;fill-opacity:1;stroke-width:0.99999994"
       d="M 113.38672,861.73242 A 113.38583,113.38583 0 0 0 0,975.11719 a 113.38583,113.38583 0 0 0 81.408203,108.71291 33.266677,30.23622 0 0 1 0.197266,-0.7031 33.266677,30.23622 0 0 1 1.140625,-2.8379 33.266677,30.23622 0 0 1 1.445312,-2.7227 33.266677,30.23622 0 0 1 1.738282,-2.5762 33.266677,30.23622 0 0 1 2.011718,-2.4062 33.266677,30.23622 0 0 1 2.267578,-2.211 33.266677,30.23622 0 0 1 2.498047,-1.9941 33.266677,30.23622 0 0 1 2.705078,-1.7598 33.266677,30.23622 0 0 1 2.884766,-1.5039 33.266677,30.23622 0 0 1 3.035155,-1.2343 33.266677,30.23622 0 0 1 3.1543,-0.9532 33.266677,30.23622 0 0 1 3.24609,-0.6601 33.266677,30.23622 0 0 1 3.30078,-0.3653 33.266677,30.23622 0 0 1 2.35352,-0.076 33.266677,30.23622 0 0 1 3.32031,0.1523 33.266677,30.23622 0 0 1 3.28711,0.4512 33.266677,30.23622 0 0 1 3.22266,0.748 33.266677,30.23622 0 0 1 3.12304,1.0352 33.266677,30.23622 0 0 1 2.99414,1.3144 33.266677,30.23622 0 0 1 2.83594,1.5801 33.266677,30.23622 0 0 1 2.64649,1.8301 33.266677,30.23622 0 0 1 2.43359,2.0605 33.266677,30.23622 0 0 1 2.19531,2.2696 33.266677,30.23622 0 0 1 1.9336,2.459 33.266677,30.23622 0 0 1 1.65429,2.6211 33.266677,30.23622 0 0 1 1.35938,2.7597 33.266677,30.23622 0 0 1 0.99023,2.711 113.38583,113.38583 0 0 0 81.38867,-108.70121 113.38583,113.38583 0 0 0 -113.38476,-113.38477 z"
       id="path3727"
       inkscape:connector-curvature="0"
       transform="scale(0.26458333)" />
  </g>
  <g
     style="display:none"
     inkscape:label="BG Circle big vacant"
     id="g4806"
     inkscape:groupmode="layer">
    <path
       transform="scale(0.26458333)"
       inkscape:connector-curvature="0"
       id="path4804"
       d="M 113.38672,861.73242 A 113.38583,113.38583 0 0 0 0,975.11719 a 113.38583,113.38583 0 0 0 81.408203,108.71291 33.266677,30.23622 0 0 1 0.197266,-0.7031 33.266677,30.23622 0 0 1 1.140625,-2.8379 33.266677,30.23622 0 0 1 1.445312,-2.7227 33.266677,30.23622 0 0 1 1.738282,-2.5762 33.266677,30.23622 0 0 1 2.011718,-2.4062 33.266677,30.23622 0 0 1 2.267578,-2.211 33.266677,30.23622 0 0 1 2.498047,-1.9941 33.266677,30.23622 0 0 1 2.705078,-1.7598 33.266677,30.23622 0 0 1 2.884766,-1.5039 33.266677,30.23622 0 0 1 3.035155,-1.2343 33.266677,30.23622 0 0 1 3.1543,-0.9532 33.266677,30.23622 0 0 1 3.24609,-0.6601 33.266677,30.23622 0 0 1 3.30078,-0.3653 33.266677,30.23622 0 0 1 2.35352,-0.076 33.266677,30.23622 0 0 1 3.32031,0.1523 33.266677,30.23622 0 0 1 3.28711,0.4512 33.266677,30.23622 0 0 1 3.22266,0.748 33.266677,30.23622 0 0 1 3.12304,1.0352 33.266677,30.23622 0 0 1 2.99414,1.3144 33.266677,30.23622 0 0 1 2.83594,1.5801 33.266677,30.23622 0 0 1 2.64649,1.8301 33.266677,30.23622 0 0 1 2.43359,2.0605 33.266677,30.23622 0 0 1 2.19531,2.2696 33.266677,30.23622 0 0 1 1.9336,2.459 33.266677,30.23622 0 0 1 1.65429,2.6211 33.266677,30.23622 0 0 1 1.35938,2.7597 33.266677,30.23622 0 0 1 0.99023,2.711 113.38583,113.38583 0 0 0 81.38867,-108.70121 113.38583,113.38583 0 0 0 -113.38476,-113.38477 z"
       style="fill:url(#linearGradient4818);fill-opacity:1;stroke-width:0.99999994" />
  </g>
  <g
     inkscape:groupmode="layer"
     id="layer3"
     inkscape:label="BG Circle small busy"
     style="display:inline;opacity:1">
    <ellipse
       style="fill:url(#linearGradient4670);fill-opacity:1;stroke-width:0.29161131"
       id="path3738"
       cx="29.999977"
       cy="289.811"
       rx="7.1999998"
       ry="7.1890001" />
  </g>
  <g
     style="display:none;opacity:1"
     inkscape:label="BG Circle small vacant"
     id="g4822"
     inkscape:groupmode="layer">
    <ellipse
       ry="7.1890001"
       rx="7.1999998"
       cy="289.811"
       cx="29.999977"
       id="ellipse4820"
       style="fill:url(#linearGradient4824);fill-opacity:1;stroke-width:0.29161131" />
  </g>
  <g
     inkscape:groupmode="layer"
     id="layer6"
     inkscape:label="Cross"
     style="display:inline">
    <path
       id="path4565"
       d="m 33.05815,287.82317 -1.987585,1.98778 1.987585,1.9877 c 0.295642,0.29576 0.295642,0.77485 0,1.07061 -0.147718,0.14771 -0.341386,0.22163 -0.534961,0.22163 -0.193894,0 -0.387581,-0.0738 -0.535186,-0.22163 l -1.988017,-1.98793 -1.987866,1.9879 c -0.147699,0.14772 -0.341386,0.22164 -0.53513,0.22164 -0.193686,0 -0.387241,-0.0738 -0.535072,-0.22164 -0.295644,-0.29562 -0.295644,-0.77472 0,-1.0706 l 1.987527,-1.98769 -1.98764,-1.98777 c -0.295643,-0.29564 -0.295643,-0.77484 0,-1.07048 0.295587,-0.29543 0.774502,-0.29543 1.070202,0 l 1.987961,1.98778 1.98781,-1.98778 c 0.295756,-0.29543 0.774728,-0.29543 1.070259,0 0.295755,0.29564 0.295755,0.77484 1.13e-4,1.07048 z"
       inkscape:connector-curvature="0"
       style="fill:url(#linearGradient4590);fill-opacity:1;stroke:none;stroke-width:0.01883198" />
  </g>
  <g
     inkscape:groupmode="layer"
     id="layer7"
     inkscape:label="Tick"
     style="display:none">
    <g
       style="display:inline;opacity:1"
       id="g4594"
       transform="matrix(0.26458333,0,0,0.26458333,28.146047,285.25825)">
	<path
   id="path4592"
   d="m 21.178355,7.3380117 -0.859,-0.858 c -0.943,-0.945 -2.488,-0.945 -3.434,0 L 2.3013551,21.066012 l -5.175,-5.173 c -0.943,-0.944 -2.489,-0.944 -3.432,10e-4 l -0.858,0.857 c -0.943,0.944 -0.943,2.489 0,3.433 l 7.74399999,7.752 c 0.94400001,0.943 2.48900001,0.943 3.43300001,0 l 17.1649999,-17.165 c 0.942,-0.9440003 0.942,-2.4890003 0,-3.4330003 z"
   style="fill:#ffffff;fill-opacity:1"
   inkscape:connector-curvature="0" />

</g>
  </g>
  <g
     inkscape:groupmode="layer"
     id="layer8"
     inkscape:label="Toilet"
     style="display:inline">
    <g
       id="g4776">
      <path
         sodipodi:nodetypes="ccccccc"
         inkscape:connector-curvature="0"
         id="path4610"
         d="m 18.635978,242.84637 v -2.032 l 0.5,-0.386 h 21.728 l 0.5,0.386 v 2.032 z"
         style="fill:url(#linearGradient4740);fill-opacity:1;stroke:url(#linearGradient4742);stroke-width:0.5;stroke-linecap:butt;stroke-linejoin:miter;stroke-miterlimit:4;stroke-dasharray:none;stroke-opacity:1" />
      <path
         sodipodi:nodetypes="ccccccc"
         inkscape:connector-curvature="0"
         id="path4626"
         d="m 19.406733,242.83585 1.472895,10.56639 0.98293,1.7486 h 16.27484 l 0.98293,-1.7486 1.472895,-10.56639 z"
         style="fill:url(#linearGradient4744);fill-opacity:1;stroke:url(#linearGradient4746);stroke-width:0.5;stroke-linecap:butt;stroke-linejoin:miter;stroke-miterlimit:4;stroke-dasharray:none;stroke-opacity:1" />
      <path
         sodipodi:nodetypes="ccccc"
         inkscape:connector-curvature="0"
         id="path4628"
         d="m 17.769537,255.20148 h 24.462498 c 0.453397,0.70799 0.451288,1.40122 0,2.09234 l -24.462498,2.1e-4 c -0.453314,-0.69751 -0.456296,-1.38907 0,-2.09255 z"
         style="display:inline;fill:url(#linearGradient4748);fill-opacity:1;stroke:url(#linearGradient4750);stroke-width:0.5;stroke-linecap:butt;stroke-linejoin:miter;stroke-miterlimit:4;stroke-dasharray:none;stroke-opacity:1" />
      <path
         sodipodi:nodetypes="cccc"
         inkscape:connector-curvature="0"
         id="path4633"
         d="m 18.523478,257.30606 h 22.953 c 0,4.80448 -6.106201,11.21172 -11.477,11.21172 -6.399813,0 -11.476,-6.39871 -11.476,-11.21172 z"
         style="fill:url(#linearGradient4752);fill-opacity:1;stroke:url(#linearGradient4754);stroke-width:0.5;stroke-linecap:butt;stroke-linejoin:miter;stroke-miterlimit:4;stroke-dasharray:none;stroke-opacity:1" />
      <path
         sodipodi:nodetypes="ccccc"
         inkscape:connector-curvature="0"
         id="path4628-6"
         d="m 24.098238,272.88696 h 11.804256 c 0.218784,0.48994 0.217767,0.96967 0,1.44793 l -11.804256,1.5e-4 c -0.218745,-0.48269 -0.220183,-0.96126 0,-1.44808 z"
         style="display:inline;fill:url(#linearGradient4756);fill-opacity:1;stroke:url(#linearGradient4758);stroke-width:0.5;stroke-linecap:butt;stroke-linejoin:miter;stroke-miterlimit:4;stroke-dasharray:none;stroke-opacity:1" />
      <path
         sodipodi:nodetypes="ccccc"
         inkscape:connector-curvature="0"
         id="path4650"
         d="m 26.772314,267.97842 c 2.300708,0.74496 4.314643,0.77604 6.455328,0 l 1.000967,4.89319 h -8.457262 z"
         style="fill:url(#linearGradient4760);fill-opacity:1;stroke:url(#linearGradient4762);stroke-width:0.5;stroke-linecap:butt;stroke-linejoin:miter;stroke-miterlimit:4;stroke-dasharray:none;stroke-opacity:1" />
    </g>
  </g>
  <g
     style="display:none"
     inkscape:label="Toilet free"
     id="g4699"
     inkscape:groupmode="layer">
    <g
       id="g4784"
       style="stroke:url(#linearGradient4790)"
       transform="translate(0.01886066)">
      <path
         style="fill:url(#linearGradient4701);fill-opacity:1;stroke:url(#linearGradient4792);stroke-width:0.5;stroke-linecap:butt;stroke-linejoin:miter;stroke-miterlimit:4;stroke-dasharray:none;stroke-opacity:1"
         d="m 18.617116,242.84637 v -2.032 l 0.5,-0.386 h 21.728 l 0.5,0.386 v 2.032 z"
         id="path4685"
         inkscape:connector-curvature="0"
         sodipodi:nodetypes="ccccccc" />
      <path
         style="fill:url(#linearGradient4705);fill-opacity:1;stroke:url(#linearGradient4794);stroke-width:0.5;stroke-linecap:butt;stroke-linejoin:miter;stroke-miterlimit:4;stroke-dasharray:none;stroke-opacity:1"
         d="m 19.41008,242.85494 1.469807,12.41979 0.980869,2.05531 h 16.24072 l 0.980869,-2.05531 1.469807,-12.41979 z"
         id="path4687"
         inkscape:connector-curvature="0"
         sodipodi:nodetypes="ccccccc" />
      <path
         inkscape:connector-curvature="0"
         id="path4689"
         d="m 29.981115,241.65447 c -5.214402,-0.0251 -10.428879,5.34327 -10.42882,16.18041 h 4.7625 a 6.7819642,8.7433076 0 0 1 -1.115694,-4.79754 6.7819642,8.7433076 0 0 1 6.782014,-8.74352 6.7819642,8.7433076 0 0 1 6.782016,8.74352 6.7819642,8.7433076 0 0 1 -1.118796,4.79754 h 4.765601 c 0,-10.73664 -5.214419,-16.15531 -10.428821,-16.18041 z m 5.66322,16.18041 h -11.32954 a 6.7819642,8.7433076 0 0 0 5.66632,3.94552 6.7819642,8.7433076 0 0 0 5.66322,-3.94552 z"
         style="display:inline;fill:url(#linearGradient4709);fill-opacity:1;stroke:url(#linearGradient4796);stroke-width:0.47062275;stroke-linecap:butt;stroke-linejoin:miter;stroke-miterlimit:4;stroke-dasharray:none;stroke-opacity:1" />
      <path
         style="fill:url(#linearGradient4713);fill-opacity:1;stroke:url(#linearGradient4798);stroke-width:0.5;stroke-linecap:butt;stroke-linejoin:miter;stroke-miterlimit:4;stroke-dasharray:none;stroke-opacity:1"
         d="m 18.504616,257.30606 h 22.953 c 0,4.80448 -6.106201,11.21172 -11.477,11.21172 -6.399813,0 -11.476,-6.39871 -11.476,-11.21172 z"
         id="path4691"
         inkscape:connector-curvature="0"
         sodipodi:nodetypes="cccc" />
      <path
         style="display:inline;fill:url(#linearGradient4717);fill-opacity:1;stroke:url(#linearGradient4800);stroke-width:0.5;stroke-linecap:butt;stroke-linejoin:miter;stroke-miterlimit:4;stroke-dasharray:none;stroke-opacity:1"
         d="m 24.079375,272.88696 h 11.804256 c 0.218784,0.48994 0.217767,0.96967 0,1.44793 l -11.804256,1.5e-4 c -0.218745,-0.48269 -0.220183,-0.96126 0,-1.44808 z"
         id="path4693"
         inkscape:connector-curvature="0"
         sodipodi:nodetypes="ccccc" />
      <path
         style="fill:url(#linearGradient4721);fill-opacity:1;stroke:url(#linearGradient4802);stroke-width:0.5;stroke-linecap:butt;stroke-linejoin:miter;stroke-miterlimit:4;stroke-dasharray:none;stroke-opacity:1"
         d="m 26.753452,267.97842 c 2.300708,0.74496 4.314643,0.77604 6.455328,0 l 1.000967,4.89319 h -8.457262 z"
         id="path4695"
         inkscape:connector-curvature="0"
         sodipodi:nodetypes="ccccc" />
    </g>
  </g>
  <g
     id="g4567"
     transform="matrix(0.02447153,0,0,0.02447153,25.692624,285.74327)">
	
</g>
</svg>
